<svg xmlns="http://www.w3.org/2000/svg" width="100" height="95" viewBox="0 0 100 95">
  <g id="Group_457" data-name="Group 457" transform="translate(-138 -407)">
    <text id="_No_Sessions" data-name="      No Sessions" transform="translate(148 499)" fill="#555" font-size="10" font-family="Montserrat-Regular, Montserrat"><tspan x="0" y="0" xml:space="preserve">      No Sessions</tspan></text>
    <g id="Group_408" data-name="Group 408" transform="translate(65.01 201.468)">
      <g id="Group_378" data-name="Group 378" transform="translate(83.074 228.35)" opacity="0.05">
        <path id="Path_583" data-name="Path 583" d="M139.047,280.137h-32.7a3.361,3.361,0,0,1,0-6.723h32.7a3.361,3.361,0,0,1,0,6.723Z" transform="translate(-102.99 -273.414)"/>
      </g>
      <g id="Group_379" data-name="Group 379" transform="translate(72.99 251.88)" opacity="0.05">
        <path id="Path_584" data-name="Path 584" d="M109.047,350.137h-32.7a3.361,3.361,0,0,1,0-6.723h32.7a3.361,3.361,0,0,1,0,6.723Z" transform="translate(-72.99 -343.414)"/>
      </g>
      <g id="Group_380" data-name="Group 380" transform="translate(133.571 242.518)" opacity="0.05">
        <path id="Path_585" data-name="Path 585" d="M289.271,322.286h-32.7a3.361,3.361,0,1,1,0-6.723h32.7a3.361,3.361,0,0,1,0,6.723Z" transform="translate(-253.213 -315.563)"/>
      </g>
      <g id="Group_381" data-name="Group 381" transform="translate(123.227 248.539)">
        <path id="Path_586" data-name="Path 586" d="M222.441,333.473" transform="translate(-222.441 -333.473)" fill="none" stroke="#000" stroke-miterlimit="10" stroke-width="3"/>
      </g>
      <g id="Group_382" data-name="Group 382" transform="translate(117.36 248.539)">
        <path id="Path_587" data-name="Path 587" d="M204.987,333.473" transform="translate(-204.987 -333.473)" fill="none" stroke="#000" stroke-miterlimit="10" stroke-width="3"/>
      </g>
      <g id="Group_383" data-name="Group 383" transform="translate(159.134 265.133)">
        <line id="Line_64" data-name="Line 64" x2="1.877" fill="none"/>
      </g>
      <g id="Group_384" data-name="Group 384" transform="translate(139.194 264.342)">
        <path id="Path_588" data-name="Path 588" d="M269.94,381.648v-1.161l.863.074,0,.475h.143v.057h-.143l0,.472Z" transform="translate(-269.94 -380.487)"/>
      </g>
      <g id="Group_385" data-name="Group 385" transform="translate(139.15 232.545)">
        <path id="Path_589" data-name="Path 589" d="M269.816,286.925l-.006-1.029h.745l.133,0-.007.5h.137l-.137,0-.007.5c-.114,0-.228,0-.339.006Zm.484-1.022.014.5Z" transform="translate(-269.81 -285.894)"/>
      </g>
      <g id="Group_386" data-name="Group 386" transform="translate(139.822 264.342)">
        <path id="Path_590" data-name="Path 590" d="M272.818,381.647l-.865-.084,0-.472h-.146v-.057h.146l0-.475.86-.074Z" transform="translate(-271.81 -380.485)"/>
      </g>
      <g id="Group_387" data-name="Group 387" transform="translate(139.866 232.545)">
        <path id="Path_591" data-name="Path 591" d="M272.948,286.918l-.534-.008c-.108,0-.216-.006-.327-.006l-.007-.5-.141-.007h.141l-.007-.5.132,0h.743Z" transform="translate(-271.94 -285.894)"/>
      </g>
      <g id="Group_388" data-name="Group 388" transform="translate(133.577 210.934)" opacity="0.4">
        <path id="Path_592" data-name="Path 592" d="M255.894,222.947H253.9a.672.672,0,1,1,0-1.345h1.99a.672.672,0,1,1,0,1.345Z" transform="translate(-253.232 -221.602)"/>
      </g>
      <g id="Group_389" data-name="Group 389" transform="translate(137.771 210.934)" opacity="0.4">
        <path id="Path_593" data-name="Path 593" d="M268.085,222.947h-1.706a.672.672,0,0,1,0-1.345h1.706a.672.672,0,0,1,0,1.345Z" transform="translate(-265.707 -221.602)"/>
      </g>
      <g id="Group_390" data-name="Group 390" transform="translate(98.241 220.616)" opacity="0.4">
        <path id="Path_594" data-name="Path 594" d="M155.091,251.75H148.78a.672.672,0,1,1,0-1.345h6.311a.672.672,0,1,1,0,1.345Z" transform="translate(-148.108 -250.405)"/>
      </g>
      <g id="Group_391" data-name="Group 391" transform="translate(107.076 220.616)" opacity="0.4">
        <path id="Path_595" data-name="Path 595" d="M177.274,251.75h-2.209a.672.672,0,1,1,0-1.345h2.209a.672.672,0,1,1,0,1.345Z" transform="translate(-174.393 -250.405)"/>
      </g>
      <g id="Group_392" data-name="Group 392" transform="translate(140.525 213.279)" opacity="0.4">
        <path id="Path_596" data-name="Path 596" d="M296.03,234.42h-4.418a.672.672,0,0,1-.671-.633,3.111,3.111,0,0,0-1.171-2.645c-1.258-.77-3.233.057-3.252.066a.674.674,0,0,1-.663-.071c-1.495-1.079-2.833-1.441-3.977-1.072-1.986.64-2.872,3.238-2.881,3.264a.672.672,0,0,1-.638.46h-3.787a.672.672,0,1,1,0-1.345H277.9a6.488,6.488,0,0,1,3.563-3.659,5.556,5.556,0,0,1,4.877,1.052,5.119,5.119,0,0,1,4.13.158,4.021,4.021,0,0,1,1.75,3.08h3.808a.672.672,0,0,1,0,1.345Z" transform="translate(-273.9 -228.579)"/>
      </g>
      <g id="Group_406" data-name="Group 406" transform="translate(93.923 220.275)">
        <g id="Group_393" data-name="Group 393" transform="translate(17.601 4.356)">
          <rect id="Rectangle_192" data-name="Rectangle 192" width="27.458" height="39.662" transform="translate(0.672 0.672)" fill="#fff"/>
          <path id="Path_597" data-name="Path 597" d="M215.758,303.357H188.3a.673.673,0,0,1-.672-.672V263.023a.673.673,0,0,1,.672-.672h27.458a.673.673,0,0,1,.672.672v39.662A.673.673,0,0,1,215.758,303.357Zm-26.786-1.345h26.114V263.7H188.972Z" transform="translate(-187.627 -262.351)"/>
        </g>
        <g id="Group_405" data-name="Group 405" transform="translate(0)">
          <g id="Group_394" data-name="Group 394" transform="translate(21.122)">
            <path id="Path_598" data-name="Path 598" d="M219.659,255.092H198.772a.673.673,0,0,1-.672-.672v-4.356a.673.673,0,0,1,.672-.672h20.887a.673.673,0,0,1,.672.672v4.356A.673.673,0,0,1,219.659,255.092Zm-20.215-1.345h19.542v-3.012H199.445Z" transform="translate(-198.1 -249.391)"/>
          </g>
          <g id="Group_395" data-name="Group 395" transform="translate(8.921 18.907)">
            <path id="Path_599" data-name="Path 599" d="M171.157,332.093h-8.68a.672.672,0,0,1-.672-.672V306.309a.672.672,0,0,1,.672-.672h8.68a.672.672,0,0,1,.672.672v25.111A.672.672,0,0,1,171.157,332.093Zm-8.008-1.345h7.335V306.982H163.15Z" transform="translate(-161.805 -305.637)"/>
          </g>
          <g id="Group_396" data-name="Group 396" transform="translate(11.132 14.351)">
            <path id="Path_600" data-name="Path 600" d="M175.523,297.984h-6.469a.672.672,0,0,1-.672-.672v-4.556a.672.672,0,0,1,.672-.672h6.469a.672.672,0,0,1,.672.672v4.556A.672.672,0,0,1,175.523,297.984Zm-5.8-1.345h5.125v-3.212h-5.125Z" transform="translate(-168.381 -292.083)"/>
          </g>
          <g id="Group_397" data-name="Group 397" transform="translate(23.234 13.98)">
            <path id="Path_601" data-name="Path 601" d="M210.688,297.252a.672.672,0,0,1-.672-.672v-4.256h-4.288v4.256a.672.672,0,1,1-1.345,0v-4.929a.673.673,0,0,1,.672-.672h5.633a.673.673,0,0,1,.672.672v4.929A.673.673,0,0,1,210.688,297.252Z" transform="translate(-204.383 -290.979)"/>
          </g>
          <g id="Group_398" data-name="Group 398" transform="translate(22.764 22.428)">
            <path id="Path_602" data-name="Path 602" d="M209.526,322.621a.672.672,0,0,1-.672-.672v-4.491h-4.522v4.491a.672.672,0,0,1-1.345,0v-5.163a.673.673,0,0,1,.672-.672h5.867a.672.672,0,0,1,.672.672v5.163A.672.672,0,0,1,209.526,322.621Z" transform="translate(-202.987 -316.113)"/>
          </g>
          <g id="Group_399" data-name="Group 399" transform="translate(29.101 35.062)">
            <path id="Path_603" data-name="Path 603" d="M229.315,364h-6.806a.673.673,0,0,1-.672-.672V354.37a.672.672,0,0,1,.672-.672h6.806a.672.672,0,0,1,.672.672v8.956A.672.672,0,0,1,229.315,364Zm-6.134-1.345h5.461v-7.611h-5.461Z" transform="translate(-221.837 -353.698)"/>
          </g>
          <g id="Group_400" data-name="Group 400" transform="translate(4.459 44.018)">
            <path id="Path_604" data-name="Path 604" d="M200.363,381.686H149.2a.672.672,0,0,1,0-1.345h51.161a.672.672,0,0,1,0,1.345Z" transform="translate(-148.53 -380.341)"/>
          </g>
          <g id="Group_401" data-name="Group 401" transform="translate(58.202 44.018)">
            <path id="Path_605" data-name="Path 605" d="M312.6,381.686h-3.52a.672.672,0,0,1,0-1.345h3.52a.672.672,0,0,1,0,1.345Z" transform="translate(-308.41 -380.341)"/>
          </g>
          <g id="Group_402" data-name="Group 402" transform="translate(0 44.186)">
            <path id="Path_606" data-name="Path 606" d="M137.58,382.186h-1.643a.672.672,0,1,1,0-1.345h1.643a.672.672,0,1,1,0,1.345Z" transform="translate(-135.265 -380.841)"/>
          </g>
          <g id="Group_403" data-name="Group 403" transform="translate(31.722 9.113)">
            <path id="Path_607" data-name="Path 607" d="M258.729,292.047c0,7.482-13.547,21.023-13.547,21.023s-13.547-13.541-13.547-21.023a13.547,13.547,0,1,1,27.093,0Z" transform="translate(-230.964 -277.828)" fill="#ed5c65"/>
            <path id="Path_608" data-name="Path 608" d="M243.855,312.414a.67.67,0,0,1-.476-.2c-.561-.561-13.744-13.826-13.744-21.5a14.219,14.219,0,1,1,28.438,0c0,7.672-13.182,20.937-13.743,21.5A.67.67,0,0,1,243.855,312.414Zm0-34.569a12.889,12.889,0,0,0-12.875,12.874c0,2.907,2.293,7.369,6.63,12.9,2.588,3.3,5.2,6.076,6.245,7.159,1.047-1.084,3.664-3.866,6.252-7.169,4.332-5.529,6.622-9.987,6.622-12.892A12.889,12.889,0,0,0,243.855,277.845Z" transform="translate(-229.636 -276.5)" fill="#060606"/>
          </g>
          <g id="Group_404" data-name="Group 404" transform="translate(40.525 17.88)">
            <circle id="Ellipse_20" data-name="Ellipse 20" cx="4.891" cy="4.891" r="4.891" transform="translate(0.672 0.672)" fill="#fff"/>
            <path id="Path_609" data-name="Path 609" d="M261.388,313.708a5.564,5.564,0,1,1,5.564-5.564A5.57,5.57,0,0,1,261.388,313.708Zm0-9.782a4.219,4.219,0,1,0,4.219,4.219A4.224,4.224,0,0,0,261.388,303.926Z" transform="translate(-255.824 -302.581)" fill="#060606"/>
          </g>
        </g>
      </g>
      <g id="Group_407" data-name="Group 407" transform="translate(87.232 205.532)" opacity="0.4">
        <path id="Path_610" data-name="Path 610" d="M158.917,212.278H147.441a.672.672,0,0,1-.658-.533,3,3,0,0,0-2.919-2.364,2.945,2.945,0,0,0-1.266.282.672.672,0,0,1-.828-.21,6.316,6.316,0,0,0-11.241,2.3.672.672,0,0,1-.655.521H116.031a.672.672,0,1,1,0-1.345h13.327a7.661,7.661,0,0,1,13.171-2.687,4.3,4.3,0,0,1,1.335-.21,4.352,4.352,0,0,1,4.085,2.9h10.967a.672.672,0,1,1,0,1.345Z" transform="translate(-115.359 -205.532)"/>
      </g>
    </g>
  </g>
</svg>
